PathFileType	4	(X/Y/Z)	D:\TRACE\v60_Jaco2_6-2-23\v60_baseline_4-platform.trc
DataRate	CameraRate	NumFrames	NumMarkers	Units	OrigDataRate	OrigDataStartFrame	OrigNumFrames
100.00	100.00	      43	5	mm	100.00	1626	      6500
Frame#	Time	Left_Front			Right_Front			Left_Aft			Right_Aft			Post			
		X1	Y1	Z1	X2	Y2	Z2	X3	Y3	Z3	X4	Y4	Z4	X5	Y5	Z5	

1626	16.250	-800.64270	8.85287	-638.73303	769.36493	10.27094	-644.46478	-708.80688	8.05592	496.21545	733.56775	7.02326	505.84277	-14.13993	1308.25171	-961.87665	
1627	16.260	-800.52991	8.69493	-638.89215	769.38696	10.21473	-644.45160	-708.80713	8.04475	496.19031	733.52582	6.95528	505.84521	-14.05178	1308.11841	-961.57703	
1628	16.270	-800.53406	8.69226	-638.89703	769.33026	10.13966	-644.40192	-708.75024	7.99906	496.22086	733.44202	6.91623	505.91443	-14.05856	1308.05212	-961.40411	
1629	16.280	-800.55560	8.79581	-638.86554	769.37427	10.14339	-644.41284	-708.76178	8.01655	496.24762	733.47266	6.94116	505.89548	-14.02689	1308.09070	-961.38190	
1630	16.290	-800.61230	8.90069	-638.72278	769.31586	10.23102	-644.41595	-708.76135	8.03144	496.24408	733.46887	6.96975	505.88452	-14.07473	1308.16516	-961.51428	
1631	16.300	-800.65747	8.92360	-638.69470	769.34052	10.28703	-644.41003	-708.81573	8.04989	496.20404	733.47784	6.94972	505.86057	-14.19111	1308.29773	-961.68634	
1632	16.310	-800.63159	8.83584	-638.76843	769.39587	10.27152	-644.42542	-708.84381	8.00949	496.25229	733.51154	6.93475	505.86142	-14.14241	1308.35486	-961.84180	
1633	16.320	-800.53564	8.78466	-638.88434	769.37994	10.19052	-644.40363	-708.78693	7.99086	496.21381	733.19849	6.96270	506.01633	-14.03278	1308.30579	-961.88562	
1634	16.330	-800.54633	8.75621	-638.89764	769.36194	10.18216	-644.40533	-708.74042	7.96748	496.19360	733.40710	6.93817	505.90994	-14.02116	1308.21326	-961.86908	
1635	16.340	-800.60870	8.87127	-638.76404	769.35889	10.19651	-644.45508	-708.77368	8.03454	496.22861	733.47430	6.95504	505.88745	-14.08133	1308.16870	-961.91418	
1636	16.350	-800.65985	8.86356	-638.71277	769.34125	10.24148	-644.37927	-708.77472	8.03470	496.22287	733.46332	6.94015	505.84097	-14.05527	1308.18018	-961.87543	
1637	16.360	-800.66742	8.80785	-638.72284	769.40839	10.26772	-644.37616	-708.76166	8.00972	496.22983	733.49170	6.98961	505.85306	-14.03718	1308.16248	-961.87634	
1638	16.370	-800.61206	8.74825	-638.82953	769.39813	10.21490	-644.39813	-708.79718	8.00192	496.24753	733.51849	7.01289	505.86301	-14.04196	1308.18347	-961.87689	
1639	16.380	-800.55560	8.78040	-638.83649	769.34979	10.20183	-644.46155	-708.80524	8.00257	496.20258	733.15820	7.03814	505.99878	-14.04359	1308.18823	-961.83167	
1640	16.390	-800.50299	9.02012	-638.82794	769.37122	10.26498	-644.42621	-708.80225	7.99800	496.22263	733.14600	7.03731	506.02444	-14.04436	1308.24023	-961.83453	
1641	16.400	-800.55084	9.15139	-638.70020	769.41113	10.27798	-644.36719	-708.76147	8.00756	496.27811	733.46027	6.94605	505.89169	-14.09987	1308.30029	-961.81055	
1642	16.410	-800.66675	8.92052	-638.67047	769.51996	9.93338	-644.28906	-708.76709	7.88617	496.35306	733.58533	7.06536	505.87759	-14.33607	1308.32349	-961.69775	
1643	16.420	-800.66321	8.71554	-638.79688	769.40723	10.09123	-644.32916	-709.00580	8.05336	496.46008	733.57538	7.04742	505.86316	-14.29297	1308.19739	-961.52594	
1644	16.430	-800.58887	8.64252	-638.88287	769.43365	10.17937	-644.41968	-708.66089	7.86209	496.10074	733.49756	6.98198	505.86566	-14.04696	1308.06372	-961.33838	
1645	16.440	-800.48102	8.88732	-638.84113	769.39459	10.09831	-644.40216	-708.69904	7.88834	496.07767	733.43726	7.02612	505.87817	-14.20258	1308.06677	-961.34967	
1646	16.450	-800.53906	8.99276	-638.72894	769.40314	10.06371	-644.33862	-708.71936	8.02941	496.06638	733.50378	7.03699	505.84537	-14.09550	1308.09131	-961.52570	
1647	16.460	-800.64453	8.93617	-638.66443	769.33429	10.13969	-644.38733	-708.71814	8.10125	496.11502	733.50116	7.05963	505.85553	-14.15427	1308.16809	-961.84204	
1648	16.470	-800.66473	8.78906	-638.77496	769.30756	10.21855	-644.43396	-708.74799	7.96099	496.13763	733.52429	7.10929	505.86365	-14.07103	1308.21765	-962.11633	
1649	16.480	-800.61853	8.72580	-638.87061	769.45050	10.10458	-644.29907	-708.78186	7.89028	496.07892	733.44897	7.02097	505.91336	-14.11211	1308.21802	-962.26697	
1650	16.490	-800.49896	8.88517	-638.88831	769.39612	10.08040	-644.38171	-708.77325	7.89872	495.92310	733.49982	6.96267	506.04193	-14.00760	1308.22266	-962.33936	
1651	16.500	-800.46283	9.00061	-638.83337	769.44965	10.16137	-644.34412	-708.47571	7.58204	496.10367	733.90967	7.22235	506.27634	-13.96840	1308.23596	-962.28473	
1652	16.510	-800.53369	9.05507	-638.71350	769.43018	10.16632	-644.36884	-708.50317	7.70832	496.14755	734.40424	7.62628	506.51196	-14.08345	1308.30188	-962.16333	
1653	16.520	-800.62634	8.90040	-638.75732	769.40912	10.19727	-644.40021	-708.51807	7.68661	496.11349	733.18927	7.16689	505.70932	-14.23769	1308.22266	-961.87677	
1654	16.530	-800.60028	8.85305	-638.78674	769.40991	10.12844	-644.38965	-708.58081	7.68000	496.11139	733.46545	7.09823	505.61526	-14.16131	1308.14722	-961.58459	
1655	16.540	-800.56091	8.78686	-638.85938	769.39160	10.08504	-644.35266	-708.57086	7.61112	496.10754	732.91571	6.98967	505.68420	-14.03901	1308.02405	-961.32727	
1656	16.550	-800.50720	8.87744	-638.83099	769.36591	10.04935	-644.35449	-708.50287	7.61470	496.09988	733.18024	6.86928	505.64120	-14.18059	1308.03296	-961.35120	
1657	16.560	-800.53003	8.90578	-638.74133	769.36542	10.09017	-644.37726	-708.43896	7.61164	496.16888	732.96295	6.94690	505.75491	-14.08196	1308.01233	-961.34753	
1658	16.570	-800.62152	8.95577	-638.66309	769.42578	10.13343	-644.35785	-708.46912	7.66388	496.17111	733.40125	7.00847	505.59140	-14.06674	1308.21875	-961.75256	
1659	16.580	-800.65393	8.90159	-638.70374	769.35614	10.20161	-644.36182	-708.53845	7.59650	496.17462	733.12292	7.08436	505.69302	-14.20361	1308.31421	-961.96246	
1660	16.590	-800.59680	8.89582	-638.78918	769.40259	10.14042	-644.34393	-708.57495	7.55404	496.10468	733.37646	6.96405	505.63843	-14.11136	1308.30469	-962.09851	
1661	16.600	-800.52393	8.89103	-638.87091	769.36896	10.12517	-644.38257	-708.52637	7.56017	496.09750	733.23267	6.88573	505.63187	-14.06270	1308.23987	-962.10388	
1662	16.610	-800.51617	8.89016	-638.87018	769.36163	10.03712	-644.38641	-708.52380	7.61033	496.07764	733.24280	6.89001	505.59753	-14.04531	1308.19519	-962.01312	
1663	16.620	-800.52942	8.94972	-638.80621	769.40485	10.12202	-644.38092	-708.56702	7.78206	496.09396	733.34967	6.99595	505.55490	-14.09771	1308.20166	-961.89368	
1664	16.630	-800.60077	8.96262	-638.70093	769.40686	10.15906	-644.41455	-708.83868	8.17323	495.83878	733.50763	7.11977	505.56024	-14.18306	1308.23181	-961.78912	
1665	16.640	-800.59967	8.86086	-638.77527	769.39557	10.19587	-644.42511	-708.74597	7.98732	496.06705	733.50269	7.10531	505.55597	-14.13681	1308.18384	-961.65869	
1666	16.650	-800.51636	8.75325	-638.80078	769.44537	10.08913	-644.33490	-708.74933	7.89928	496.07864	733.40314	6.97673	505.58597	-14.02966	1308.13513	-961.65094	
1667	16.660	-800.50562	8.81701	-638.87372	769.31610	10.02908	-644.40021	-708.69714	7.91423	496.06024	733.21820	6.91017	505.63239	-14.10397	1308.15735	-961.62183	
1668	16.670	-800.52063	8.90871	-638.82074	769.31683	10.12123	-644.38220	-708.72278	7.95979	496.05530	733.97717	7.31752	506.33002	-14.06237	1308.23340	-961.76758	
